<?xml version="1.0" encoding="utf-8"?>
<!-- Generator: Adobe Illustrator 22.0.1, SVG Export Plug-In . SVG Version: 6.00 Build 0)  -->
<svg version="1.1" id="Capa_1" xmlns="http://www.w3.org/2000/svg" xmlns:xlink="http://www.w3.org/1999/xlink" x="0px" y="0px"
	 viewBox="0 0 99 99" style="enable-background:new 0 0 99 99;" xml:space="preserve">
<style type="text/css">
	.st0{fill:#03AA6F;}
	.st1{fill:#86DAF1;}
</style>
<g>
	<path class="st0" d="M85.3,15.4l-5.1,3.4l-8.5-1.7l-5.1-1.7l-6.8,1.7l-5.1-1.7L58,8.5h6.8l6.7-3.3C76.7,7.7,81.4,11.2,85.3,15.4z"
		/>
	<path class="st0" d="M46.1,8.5l-1.7,5.1l-5.1,1.7l-5.1,8.5L25.6,29l-11.9,1.7v5.1l3.4,3.4v6.8l-5.1-3.4l-5.1-3.4l-3-8.9
		C9,18.2,18.7,8.5,31,3.6l4.8,3.2L46.1,8.5z"/>
	<polygon class="st0" points="49.5,56.3 47.8,64.9 41,71.7 41,76.8 34.1,81.9 34.1,90.5 29,88.8 25.6,80.2 25.6,63.2 17.1,61.5 
		13.6,54.6 13.6,49.5 17.1,46.1 22.2,41 25.6,47.8 37.5,47.8 42.7,56.3 	"/>
	<path class="st0" d="M92.7,25.3C102,41.9,100.9,62.4,90,78l-4.6-4.6v-6.8l-3.4-6.8l-3.4-6.8v-6.8l-5.1-3.4l-6.8,1.7l-11.9-5.1
		l-1.7-11.9l5.1-5.1h10.2l3.4,5.1L81.9,29l10.2-3.4L92.7,25.3z"/>
</g>
<path class="st1" d="M59.7,17.1l6.8-1.7l5.1,1.7l8.5,1.7l5.1-3.4c2.9,3,5.3,6.3,7.3,10l-0.5,0.3L81.9,29l-10.2-1.7l-3.4-5.1H58
	l-5.1,5.1l1.7,11.9l11.9,5.1l6.8-1.7l5.1,3.4v6.8l3.4,6.8l3.4,6.8v6.8L90,78c-15.8,22.3-46.7,27.7-69,11.9C2,76.5-5.1,51.7,3.9,30.3
	l3,8.9l5.1,3.4l5.1,3.4l-3.4,3.4v5.1l3.4,6.8l8.5,1.7v17.1l3.4,8.5l5.1,1.7v-8.5l6.8-5.1v-5.1l6.8-6.8l1.7-8.5h-6.8l-5.1-8.5H25.6
	L22.2,41l-5.1,5.1v-6.8l-3.4-3.4v-5.1L25.6,29l8.5-5.1l5.1-8.5l5.1-1.7l1.7-5.1L35.8,6.8L31,3.6c13.1-5.3,27.9-4.7,40.6,1.6
	l-6.7,3.3H58l-3.4,6.8L59.7,17.1z"/>
</svg>
